<?xml version="1.0" encoding="UTF-8"?>
<svg width="128pt" height="128pt" version="1.1" viewBox="0 0 128 128" xmlns="http://www.w3.org/2000/svg">
 <g fill="#fff">
  <path d="m42.367 40.512c-0.53125-0.46484-1.3359-0.41406-1.8047 0.11719l-20.48 23.297v-0.003906c-0.42188 0.48438-0.42188 1.207 0 1.6914l20.48 23.297c0.21875 0.26953 0.53906 0.44141 0.88672 0.47266 0.34766 0.027344 0.69531-0.085937 0.95703-0.31641 0.26172-0.23047 0.41797-0.55859 0.43359-0.90625s-0.11328-0.6875-0.35547-0.94141l-19.738-22.449 19.738-22.453c0.46484-0.53125 0.41406-1.3359-0.11719-1.8047z"/>
  <path d="m87.438 40.629c-0.47656-0.49609-1.2539-0.52734-1.7695-0.074218-0.51562 0.44922-0.58203 1.2266-0.15234 1.7617l19.738 22.453-19.738 22.449c-0.24219 0.25391-0.37109 0.59375-0.35547 0.94141s0.17188 0.67578 0.43359 0.90625c0.26172 0.23047 0.60938 0.34375 0.95703 0.31641 0.34766-0.03125 0.66797-0.20312 0.88672-0.47266l20.48-23.297c0.42188-0.48438 0.42188-1.207 0-1.6914z"/>
  <path d="m73.473 20.34c-0.33203-0.074219-0.67969-0.007813-0.96875 0.17578-0.28516 0.18359-0.48438 0.47656-0.55469 0.80859l-18.395 84.812c-0.070313 0.33203-0.007813 0.67969 0.17578 0.96875 0.1875 0.28516 0.47656 0.48438 0.80859 0.55469h0.26953c0.61328 0.015625 1.1523-0.41016 1.2812-1.0117l18.355-84.785c0.14844-0.69141-0.28516-1.3711-0.97266-1.5234z"/>
 </g>
</svg>
